<?xml version="1.0" encoding="UTF-8"?>
<svg width="32px" height="32px" viewBox="0 0 32 32" version="1.1" xmlns="http://www.w3.org/2000/svg" xmlns:xlink="http://www.w3.org/1999/xlink">
    <!-- Generator: Sketch 56.3 (81716) - https://sketch.com -->
    <title>Icon/icon-dashboard</title>
    <desc>Created with Sketch.</desc>
    <g id="Icon/icon-dashboard" stroke="none" stroke-width="1" fill="none" fill-rule="evenodd">
        <path d="M24.3696,17 L22.8046,17 C22.5276,17 22.3046,16.776 22.3046,16.5 C22.3046,16.224 22.5276,16 22.8046,16 L24.3696,16 C24.6456,16 24.8696,16.224 24.8696,16.5 C24.8696,16.776 24.6456,17 24.3696,17 L24.3696,17 Z M15.4996,28 C12.2786,28 9.3676,26.665 7.2776,24.524 C9.7396,22.965 12.5696,22.163 15.5096,22.217 C18.4386,22.157 21.2616,22.963 23.7226,24.523 C21.6336,26.665 18.7216,28 15.4996,28 L15.4996,28 Z M6.6306,17 C6.3536,17 6.1306,16.776 6.1306,16.5 C6.1306,16.224 6.3536,16 6.6306,16 L8.1956,16 C8.4726,16 8.6956,16.224 8.6956,16.5 C8.6956,16.776 8.4726,17 8.1956,17 L6.6306,17 Z M8.8746,9.875 C9.0706,9.68 9.3866,9.68 9.5816,9.875 L10.6886,10.981 C10.8836,11.177 10.8836,11.493 10.6886,11.688 C10.5906,11.786 10.4626,11.835 10.3346,11.835 C10.2066,11.835 10.0786,11.786 9.9816,11.688 L8.8746,10.583 C8.6796,10.387 8.6796,10.071 8.8746,9.875 L8.8746,9.875 Z M13.0986,18.099 L13.7606,17.467 C13.5996,17.179 13.4996,16.853 13.4996,16.5 C13.4996,15.397 14.3966,14.5 15.4996,14.5 C15.8866,14.5 16.2436,14.615 16.5496,14.805 L19.2666,12.213 C19.4656,12.022 19.7836,12.03 19.9736,12.229 C20.1636,12.429 20.1566,12.746 19.9566,12.937 L17.2386,15.53 C17.3996,15.819 17.4996,16.146 17.4996,16.5 C17.4996,17.603 16.6026,18.5 15.4996,18.5 C15.1126,18.5 14.7546,18.385 14.4476,18.193 L13.7886,18.822 C13.6926,18.915 13.5676,18.96 13.4436,18.96 C13.3116,18.96 13.1806,18.909 13.0816,18.806 C12.8916,18.606 12.8986,18.29 13.0986,18.099 L13.0986,18.099 Z M14.9996,7.631 C14.9996,7.354 15.2236,7.131 15.4996,7.131 C15.7766,7.131 15.9996,7.354 15.9996,7.631 L15.9996,9.196 C15.9996,9.472 15.7766,9.696 15.4996,9.696 C15.2236,9.696 14.9996,9.472 14.9996,9.196 L14.9996,7.631 Z M20.5186,10.974 L21.6716,9.868 C21.8716,9.678 22.1876,9.684 22.3786,9.883 C22.5696,10.082 22.5636,10.398 22.3646,10.59 L21.2116,11.696 C21.1146,11.789 20.9896,11.835 20.8656,11.835 C20.7336,11.835 20.6026,11.784 20.5046,11.681 C20.3136,11.482 20.3196,11.166 20.5186,10.974 L20.5186,10.974 Z M15.4996,4 C8.6076,4 2.9996,9.607 2.9996,16.5 C2.9996,19.624 4.1596,22.477 6.0606,24.67 C6.0696,24.685 6.0706,24.701 6.0796,24.714 C6.1196,24.772 6.1716,24.818 6.2276,24.854 C8.5176,27.392 11.8206,29 15.4996,29 C19.2026,29 22.5236,27.373 24.8146,24.807 C24.8506,24.777 24.8916,24.755 24.9196,24.714 C24.9296,24.701 24.9306,24.685 24.9386,24.67 C26.8406,22.477 27.9996,19.624 27.9996,16.5 C27.9996,9.607 22.3926,4 15.4996,4 L15.4996,4 Z" id="Fill-3" fill="#000000"></path>
    </g>
</svg>